# xmcd
#
# Track frame offsets:
#       150
#       15455
#       44055
#       59510
#       71835
#       83335
#       119700
#       128875
#       143260
#       165720
#       174695
#       191870
#       201765
#       248625
#       257130
#       271140
#
# Disc length: 3755 seconds
#
# Revision: 1
# Processed by: cddbd v1.5.1PL0 Copyright (c) Steve Scherf et al.
# Submitted via: MusiCat 1.1
#
DISCID=e90ea910
DTITLE=Mantovani - Volta ao Mundo
DYEAR=1900
DGENRE=
TTITLE0=Spãna
TTITLE1=Italian Fantasy
TTITLE2=La Mer-França
TTITLE3=La Cumparsita-Argentina
TTITLE4=Mexican Hat Dance
TTITLE5=American Suite
TTITLE6=Tico Tico No Fubá-Brasil
TTITLE7=Siboney-America Central
TTITLE8=Zigeuneweisen
TTITLE9=Around The World In 80 Days
TTITLE10=Tzema, Tzema, Tzema
TTITLE11=El Relicário-Espanha
TTITLE12=Andrew Lloyde Wobber Suite
TTITLE13=Cielito Lindo-Mexico
TTITLE14=Moulin Rouge Theme-França
TTITLE15=Yellow Rose Texas
EXTD=\n\n
EXTT0=
EXTT1=
EXTT2=
EXTT3=
EXTT4=
EXTT5=
EXTT6=
EXTT7=
EXTT8=
EXTT9=
EXTT10=
EXTT11=
EXTT12=
EXTT13=
EXTT14=
EXTT15=
PLAYORDER=
